<?xml version="1.0" encoding="utf-8"?>
<svg width="10px" height="15px" viewBox="0 0 10 15" version="1.1" xmlns:xlink="http://www.w3.org/1999/xlink" xmlns="http://www.w3.org/2000/svg">
  <desc>Created with Lunacy</desc>
  <path d="M2 10C2 9.382 2.187 8.807 2.508 8.33C2.506 8.387 2.5 8.443 2.5 8.5C2.5 10.71 4.29 12.5 6.5 12.5C6.557 12.5 6.613 12.494 6.67 12.491C6.193 12.812 5.618 13.001 5 13.001C3.343 13.001 2 11.657 2 10M5 1.5C5 1.5 1 6.239 1 8.999C1 11.761 2.79 14 5 14C7.209 14 9 11.761 9 8.999C9 6.239 5 1.5 5 1.5M5 15C2.238 15 0 12.313 0 8.999C0 5.686 5 0 5 0C5 0 10 5.686 10 8.999C10 12.313 7.761 15 5 15" id="Page-1" fill="#9B9B9B" stroke="none" />
</svg>