<?xml version="1.0" encoding="utf-8"?>
<svg width="13px" height="16px" viewBox="0 0 13 16" version="1.1" xmlns:xlink="http://www.w3.org/1999/xlink" xmlns="http://www.w3.org/2000/svg">
  <desc>Created with Lunacy</desc>
  <path d="M1.55724 7.30673C1.2832 8.00035 1.00015 8.92285 1.00015 9.77539C1.00015 12.8027 3.2535 14.9985 6.44399 14.9985C9.66349 14.9985 11.9998 12.8027 11.9998 9.77539C11.9998 8.4691 11.8388 7.86243 11.2167 6.82299C10.8007 6.12837 10.5946 5.50471 10.4966 5.00798C10.3976 5.16789 10.3056 5.36379 10.2386 5.59966C9.93353 6.66708 10.0105 7.9154 10.0115 7.92739C10.0255 8.15027 9.88952 8.35716 9.67949 8.43212C9.46846 8.50708 9.23342 8.43412 9.1034 8.25022C9.06639 8.19724 8.17726 6.93593 7.7852 6.08739C6.97107 4.32535 6.98407 2.42039 7.06709 1.32198C6.24396 1.80372 4.97877 2.87714 4.5727 5.06095C4.17664 7.18579 4.94576 9.30964 4.95376 9.33163C5.01977 9.50453 4.98477 9.70143 4.86275 9.84235C4.74073 9.98027 4.5517 10.0422 4.37067 9.99826C4.30866 9.98327 2.90045 9.61647 1.98931 8.17925C1.82628 7.92139 1.68026 7.60956 1.55724 7.30673M6.44399 16C2.67441 16 0 13.3824 0 9.77539C0 7.86043 1.14618 5.79855 1.19518 5.7126C1.2952 5.53469 1.49023 5.43875 1.69426 5.46073C1.89629 5.48572 2.06232 5.63264 2.11433 5.82953C2.11733 5.84153 2.42637 6.9989 2.83444 7.64255C3.10848 8.07431 3.38652 8.38114 3.69857 8.59303C3.48754 7.67453 3.32551 6.29428 3.58855 4.87705C4.31266 0.987167 7.37013 0.0576722 7.50115 0.0186934C7.67018 -0.028281 7.84821 0.0146956 7.97723 0.131632C8.10525 0.248568 8.16426 0.424473 8.13025 0.59538C8.12525 0.623365 7.62017 3.34588 8.69234 5.66562C8.78935 5.87651 8.92537 6.12137 9.0714 6.36624C9.1124 6.03042 9.17741 5.67262 9.27643 5.32581C9.66949 3.94856 10.6856 3.47781 10.7287 3.45982C10.8977 3.38286 11.0957 3.40785 11.2427 3.52279C11.3888 3.63872 11.4588 3.82462 11.4248 4.00852C11.4198 4.0425 11.2777 4.978 12.0739 6.30727C12.793 7.50662 13 8.2842 13 9.77539C13 13.3824 10.2436 16 6.44399 16" id="Fill-1" fill="#9B9B9B" stroke="none" />
</svg>