<?xml version="1.0" encoding="utf-8"?>
<svg width="16px" height="16px" viewBox="0 0 16 16" version="1.1" xmlns:xlink="http://www.w3.org/1999/xlink" xmlns="http://www.w3.org/2000/svg">
  <desc>Created with Lunacy</desc>
  <path d="M12.5032 4C12.2269 4 12.0038 4.672 12.0038 5.5C12.0038 6.328 12.2269 7 12.5032 7C12.7784 7 13.0026 6.328 13.0026 5.5C13.0026 4.672 12.7784 4 12.5032 4L12.5032 4ZM12.5032 8C11.6915 8 11.035 6.923 11.0089 5.58L11.0089 5.42C11.035 4.077 11.6915 3 12.5032 3C13.3308 3 14.0014 4.119 14.0014 5.5C14.0014 6.881 13.3308 8 12.5032 8L12.5032 8ZM12.0038 1C10.4615 1 9.20648 2.754 9.03934 5.002L9.00732 5.002L9.00732 5.475C9.00732 5.483 9.00532 5.492 9.00532 5.5C9.00532 5.507 9.00732 5.514 9.00732 5.521L9.00732 9.001L9.00231 9.001L9.00231 10.001L9.00532 10.001L9.00732 10.001L9.00732 10.002L11.0089 10.002L11.0089 10.001L11.9998 10.001L12.0038 10.001C13.6591 10.001 15.0012 7.985 15.0012 5.5C15.0012 3.015 13.6591 1 12.0038 1L12.0038 1ZM9.00732 1L9.00732 1L8.17364 1L6.38619 1C6.38619 1.001 6.38619 1.001 6.38619 1.001L4.01927 1.002C4.01626 1.002 4.01326 1 4.01026 1C2.35391 1 1.01182 2.791 1.01182 5C1.01182 5.005 1.01382 5.01 1.01382 5.015L1.01382 15L8.00651 15L8.00651 6L8.04253 6C8.03253 5.833 8.00651 5.671 8.00651 5.5C8.00651 3.636 8.68406 1.995 9.71489 1L9.00732 1ZM12.0038 11L11.9998 11L9.00532 11L9.00532 16L0.0140114 16L0.0140114 7.002L0 7.002L0 5.002L0.0130106 5.002L0.0130106 5C0.0130106 2.238 1.80246 0 4.01026 0L12.0038 0C14.2105 0 16 2.462 16 5.5C16 8.538 14.2105 11 12.0038 11L12.0038 11Z" id="Fill-1" fill="#9B9B9B" stroke="none" />
</svg>