<?xml version="1.0" encoding="utf-8"?>
<svg width="14px" height="16px" viewBox="0 0 14 16" version="1.1" xmlns:xlink="http://www.w3.org/1999/xlink" xmlns="http://www.w3.org/2000/svg">
  <desc>Created with Lunacy</desc>
  <path d="M5 10.9997L6 10.9997L6 9.99963L5 9.99963L5 10.9997ZM8 10.9997L9 10.9997L9 9.99963L8 9.99963L8 10.9997ZM7 8.99956C5.343 8.99956 4 9.6716 4 10.4997C4 11.3277 5.343 11.9998 7 11.9998C8.656 11.9998 10 11.3277 10 10.4997C10 9.6716 8.656 8.99956 7 8.99956L7 8.99956ZM7 13.0008C4.791 13.0008 3 11.8807 3 10.4997C3 9.11957 4.791 7.9995 7 7.9995C9.209 7.9995 11 9.11957 11 10.4997C11 11.8807 9.209 13.0008 7 13.0008L7 13.0008ZM7 3.99925C3.685 3.99925 1 6.4614 1 9.49959C1 12.5368 3.685 14.9999 7 14.9999C10.313 14.9999 13 12.5368 13 9.49959C13 6.4614 10.313 3.99925 7 3.99925L7 3.99925ZM12.624 1.39709C11.547 2.08013 10.748 3.10319 10.301 3.77324L10.385 3.84324C11.236 4.28327 11.977 4.8743 12.562 5.59235C13.295 4.34927 12.952 2.51816 12.624 1.39709L12.624 1.39709ZM1.375 1.39709C1.047 2.51816 0.704 4.34927 1.437 5.59235C2.023 4.8743 2.764 4.28327 3.615 3.84324L3.699 3.77324C3.252 3.10319 2.453 2.08013 1.375 1.39709L1.375 1.39709ZM14 9.49959C14 13.0898 10.865 16 7 16C3.134 16 0 13.0898 0 9.49959C0 8.40252 0.32 7.38446 0.837 6.4784C-1.021 4.12326 0.806 0 0.806 0C2.753 0.722045 4.065 2.47715 4.65 3.40221C5.389 3.1562 6.172 2.99919 7 2.99919C7.828 2.99919 8.611 3.1562 9.35 3.40221C9.934 2.47715 11.246 0.722045 13.194 0C13.194 0 15.02 4.12326 13.162 6.4784C13.68 7.38446 14 8.40252 14 9.49959L14 9.49959Z" id="Page-1" fill="#12110C" stroke="none" />
</svg>